<svg xmlns="http://www.w3.org/2000/svg" viewBox="0 0 33.87 55.16"><defs><style>.cls-1{fill:none;stroke:#152440;stroke-miterlimit:10;stroke-width:2px;}</style></defs><g id="Calque_2" data-name="Calque 2"><g id="Calque_1-2" data-name="Calque 1"><path class="cls-1" d="M14.89,46.43a20.08,20.08,0,0,1,.45-4.37,9.63,9.63,0,0,1,1.76-3.75,12.09,12.09,0,0,1,3.78-3.12c.69-.4,1.57-.85,2.61-1.36A25.4,25.4,0,0,0,26.67,32a10.91,10.91,0,0,0,2.66-2.53,5.58,5.58,0,0,0,1-3.35,4.44,4.44,0,0,0-.82-2.68,5.31,5.31,0,0,0-2.13-1.73,7,7,0,0,0-2.88-.58,6.51,6.51,0,0,0-3.48.89,8.85,8.85,0,0,0-2.39,2.08c-.62.79-1.18,1.56-1.68,2.3L9.29,21a14.18,14.18,0,0,1,3.62-5.17,16.9,16.9,0,0,1,5.46-3.27,19.18,19.18,0,0,1,12.19-.3,16.66,16.66,0,0,1,5.16,2.58,12.52,12.52,0,0,1,3.78,4.57,15,15,0,0,1,1.42,6.74A14.22,14.22,0,0,1,40.43,30a12.84,12.84,0,0,1-1.34,3.21,11.89,11.89,0,0,1-2.21,2.65,26.59,26.59,0,0,1-3,2.32c-1.4.89-2.79,1.69-4.19,2.4A14.8,14.8,0,0,0,26.19,43a4.5,4.5,0,0,0-1.42,3.46Zm.3,18.14V53.49h9.72V64.57Z" transform="translate(-8.05 -10.41)"/></g></g></svg>